<?xml version="1.0" encoding="UTF-8"?>
<!DOCTYPE svg PUBLIC "-//W3C//DTD SVG 1.1//EN" "http://www.w3.org/Graphics/SVG/1.1/DTD/svg11.dtd">
<svg version="1.2" width="16.93mm" height="16.92mm" viewBox="144 754 1693 1692" preserveAspectRatio="xMidYMid" fill-rule="evenodd" stroke-width="28.222" stroke-linejoin="round" xmlns="http://www.w3.org/2000/svg" xmlns:ooo="http://xml.openoffice.org/svg/export" xmlns:xlink="http://www.w3.org/1999/xlink" xmlns:presentation="http://sun.com/xmlns/staroffice/presentation" xmlns:smil="http://www.w3.org/2001/SMIL20/" xmlns:anim="urn:oasis:names:tc:opendocument:xmlns:animation:1.0" xml:space="preserve">
 <defs class="EmbeddedBulletChars">
  <g id="bullet-char-template-57356" transform="scale(0.00048828125,-0.00048828125)">
   <path d="M 580,1141 L 1163,571 580,0 -4,571 580,1141 Z"/>
  </g>
  <g id="bullet-char-template-57354" transform="scale(0.00048828125,-0.00048828125)">
   <path d="M 8,1128 L 1137,1128 1137,0 8,0 8,1128 Z"/>
  </g>
  <g id="bullet-char-template-10146" transform="scale(0.00048828125,-0.00048828125)">
   <path d="M 174,0 L 602,739 174,1481 1456,739 174,0 Z M 1358,739 L 309,1346 659,739 1358,739 Z"/>
  </g>
  <g id="bullet-char-template-10132" transform="scale(0.00048828125,-0.00048828125)">
   <path d="M 2015,739 L 1276,0 717,0 1260,543 174,543 174,936 1260,936 717,1481 1274,1481 2015,739 Z"/>
  </g>
  <g id="bullet-char-template-10007" transform="scale(0.00048828125,-0.00048828125)">
   <path d="M 0,-2 C -7,14 -16,27 -25,37 L 356,567 C 262,823 215,952 215,954 215,979 228,992 255,992 264,992 276,990 289,987 310,991 331,999 354,1012 L 381,999 492,748 772,1049 836,1024 860,1049 C 881,1039 901,1025 922,1006 886,937 835,863 770,784 769,783 710,716 594,584 L 774,223 C 774,196 753,168 711,139 L 727,119 C 717,90 699,76 672,76 641,76 570,178 457,381 L 164,-76 C 142,-110 111,-127 72,-127 30,-127 9,-110 8,-76 1,-67 -2,-52 -2,-32 -2,-23 -1,-13 0,-2 Z"/>
  </g>
  <g id="bullet-char-template-10004" transform="scale(0.00048828125,-0.00048828125)">
   <path d="M 285,-33 C 182,-33 111,30 74,156 52,228 41,333 41,471 41,549 55,616 82,672 116,743 169,778 240,778 293,778 328,747 346,684 L 369,508 C 377,444 397,411 428,410 L 1163,1116 C 1174,1127 1196,1133 1229,1133 1271,1133 1292,1118 1292,1087 L 1292,965 C 1292,929 1282,901 1262,881 L 442,47 C 390,-6 338,-33 285,-33 Z"/>
  </g>
  <g id="bullet-char-template-9679" transform="scale(0.00048828125,-0.00048828125)">
   <path d="M 813,0 C 632,0 489,54 383,161 276,268 223,411 223,592 223,773 276,916 383,1023 489,1130 632,1184 813,1184 992,1184 1136,1130 1245,1023 1353,916 1407,772 1407,592 1407,412 1353,268 1245,161 1136,54 992,0 813,0 Z"/>
  </g>
  <g id="bullet-char-template-8226" transform="scale(0.00048828125,-0.00048828125)">
   <path d="M 346,457 C 273,457 209,483 155,535 101,586 74,649 74,723 74,796 101,859 155,911 209,963 273,989 346,989 419,989 480,963 531,910 582,859 608,796 608,723 608,648 583,586 532,535 482,483 420,457 346,457 Z"/>
  </g>
  <g id="bullet-char-template-8211" transform="scale(0.00048828125,-0.00048828125)">
   <path d="M -4,459 L 1135,459 1135,606 -4,606 -4,459 Z"/>
  </g>
  <g id="bullet-char-template-61548" transform="scale(0.00048828125,-0.00048828125)">
   <path d="M 173,740 C 173,903 231,1043 346,1159 462,1274 601,1332 765,1332 928,1332 1067,1274 1183,1159 1299,1043 1357,903 1357,740 1357,577 1299,437 1183,322 1067,206 928,148 765,148 601,148 462,206 346,322 231,437 173,577 173,740 Z"/>
  </g>
 </defs>
 <g class="Page">
  <g class="com.sun.star.drawing.ClosedBezierShape">
   <g id="id3">
    <rect class="BoundingBox" stroke="none" fill="none" x="993" y="995" width="844" height="1180"/>
    <path fill="rgb(0,0,0)" stroke="none" d="M 1815,1382 L 1794,1382 1794,1069 C 1794,1029 1773,996 1747,996 L 1127,996 C 1120,996 1113,1006 1113,1018 1113,1030 1120,1040 1127,1040 L 1747,1040 C 1757,1040 1765,1053 1765,1069 L 1765,2100 C 1765,2116 1757,2129 1747,2129 L 1007,2129 C 999,2129 993,2139 993,2151 993,2163 999,2173 1007,2173 L 1747,2173 C 1773,2173 1794,2140 1794,2099 L 1794,1785 1815,1785 C 1826,1785 1835,1772 1835,1755 L 1835,1413 C 1835,1396 1826,1382 1815,1382 Z"/>
   </g>
  </g>
  <g class="com.sun.star.drawing.ClosedBezierShape">
   <g id="id4">
    <rect class="BoundingBox" stroke="none" fill="none" x="144" y="995" width="651" height="1180"/>
    <path fill="rgb(0,0,0)" stroke="none" d="M 794,2151 C 794,2139 788,2129 780,2129 L 192,2129 C 182,2129 174,2116 174,2099 L 174,1069 C 174,1053 182,1040 192,1040 L 703,1040 C 711,1040 717,1030 717,1018 717,1005 711,996 703,996 L 192,996 C 166,996 145,1029 145,1069 L 145,2099 C 145,2140 166,2173 192,2173 L 780,2173 C 788,2173 794,2163 794,2151 Z"/>
   </g>
  </g>
  <g class="com.sun.star.drawing.ClosedBezierShape">
   <g id="id5">
    <rect class="BoundingBox" stroke="none" fill="none" x="214" y="1103" width="667" height="964"/>
    <path fill="rgb(0,0,0)" stroke="none" d="M 694,1104 L 242,1104 C 227,1104 215,1123 215,1146 L 215,2023 C 215,2046 227,2065 242,2065 L 799,2065 C 808,2065 816,2056 819,2042 L 878,1759 C 883,1737 872,1716 858,1715 L 696,1714 C 687,1713 680,1701 681,1687 L 715,1140 C 717,1121 706,1104 694,1104 Z"/>
   </g>
  </g>
  <g class="com.sun.star.drawing.ClosedBezierShape">
   <g id="id6">
    <rect class="BoundingBox" stroke="none" fill="none" x="1007" y="1103" width="719" height="964"/>
    <path fill="rgb(0,0,0)" stroke="none" d="M 1024,2034 C 1018,2047 1024,2065 1035,2065 L 1684,2065 C 1707,2065 1725,2037 1725,2003 L 1725,1166 C 1725,1132 1707,1104 1684,1104 L 1082,1104 C 1078,1104 1073,1108 1071,1114 L 1009,1276 C 1004,1289 1010,1306 1020,1306 L 1310,1306 C 1320,1306 1326,1324 1320,1337 L 1024,2034 Z"/>
   </g>
  </g>
  <g class="com.sun.star.drawing.ClosedBezierShape">
   <g id="id7">
    <rect class="BoundingBox" stroke="none" fill="none" x="727" y="754" width="518" height="1692"/>
    <path fill="rgb(0,0,0)" stroke="none" d="M 1230,1372 L 947,1372 C 936,1372 930,1355 935,1341 L 1139,806 C 1148,783 1138,755 1121,755 L 801,755 C 790,755 781,768 780,785 L 727,1625 C 727,1637 733,1648 740,1648 L 927,1650 C 936,1650 943,1664 940,1677 L 784,2424 C 781,2441 796,2452 802,2437 L 1241,1404 C 1247,1391 1241,1372 1230,1372 Z"/>
   </g>
  </g>
 </g>
</svg>