<?xml version="1.0" encoding="UTF-8"?>
<!DOCTYPE svg PUBLIC "-//W3C//DTD SVG 1.1//EN" "http://www.w3.org/Graphics/SVG/1.1/DTD/svg11.dtd">
<svg version="1.2" width="21.17mm" height="14.84mm" viewBox="277 594 2117 1484" preserveAspectRatio="xMidYMid" fill-rule="evenodd" stroke-width="28.222" stroke-linejoin="round" xmlns="http://www.w3.org/2000/svg" xmlns:ooo="http://xml.openoffice.org/svg/export" xmlns:xlink="http://www.w3.org/1999/xlink" xmlns:presentation="http://sun.com/xmlns/staroffice/presentation" xmlns:smil="http://www.w3.org/2001/SMIL20/" xmlns:anim="urn:oasis:names:tc:opendocument:xmlns:animation:1.0" xml:space="preserve">
 <defs class="EmbeddedBulletChars">
  <g id="bullet-char-template-57356" transform="scale(0.00048828125,-0.00048828125)">
   <path d="M 580,1141 L 1163,571 580,0 -4,571 580,1141 Z"/>
  </g>
  <g id="bullet-char-template-57354" transform="scale(0.00048828125,-0.00048828125)">
   <path d="M 8,1128 L 1137,1128 1137,0 8,0 8,1128 Z"/>
  </g>
  <g id="bullet-char-template-10146" transform="scale(0.00048828125,-0.00048828125)">
   <path d="M 174,0 L 602,739 174,1481 1456,739 174,0 Z M 1358,739 L 309,1346 659,739 1358,739 Z"/>
  </g>
  <g id="bullet-char-template-10132" transform="scale(0.00048828125,-0.00048828125)">
   <path d="M 2015,739 L 1276,0 717,0 1260,543 174,543 174,936 1260,936 717,1481 1274,1481 2015,739 Z"/>
  </g>
  <g id="bullet-char-template-10007" transform="scale(0.00048828125,-0.00048828125)">
   <path d="M 0,-2 C -7,14 -16,27 -25,37 L 356,567 C 262,823 215,952 215,954 215,979 228,992 255,992 264,992 276,990 289,987 310,991 331,999 354,1012 L 381,999 492,748 772,1049 836,1024 860,1049 C 881,1039 901,1025 922,1006 886,937 835,863 770,784 769,783 710,716 594,584 L 774,223 C 774,196 753,168 711,139 L 727,119 C 717,90 699,76 672,76 641,76 570,178 457,381 L 164,-76 C 142,-110 111,-127 72,-127 30,-127 9,-110 8,-76 1,-67 -2,-52 -2,-32 -2,-23 -1,-13 0,-2 Z"/>
  </g>
  <g id="bullet-char-template-10004" transform="scale(0.00048828125,-0.00048828125)">
   <path d="M 285,-33 C 182,-33 111,30 74,156 52,228 41,333 41,471 41,549 55,616 82,672 116,743 169,778 240,778 293,778 328,747 346,684 L 369,508 C 377,444 397,411 428,410 L 1163,1116 C 1174,1127 1196,1133 1229,1133 1271,1133 1292,1118 1292,1087 L 1292,965 C 1292,929 1282,901 1262,881 L 442,47 C 390,-6 338,-33 285,-33 Z"/>
  </g>
  <g id="bullet-char-template-9679" transform="scale(0.00048828125,-0.00048828125)">
   <path d="M 813,0 C 632,0 489,54 383,161 276,268 223,411 223,592 223,773 276,916 383,1023 489,1130 632,1184 813,1184 992,1184 1136,1130 1245,1023 1353,916 1407,772 1407,592 1407,412 1353,268 1245,161 1136,54 992,0 813,0 Z"/>
  </g>
  <g id="bullet-char-template-8226" transform="scale(0.00048828125,-0.00048828125)">
   <path d="M 346,457 C 273,457 209,483 155,535 101,586 74,649 74,723 74,796 101,859 155,911 209,963 273,989 346,989 419,989 480,963 531,910 582,859 608,796 608,723 608,648 583,586 532,535 482,483 420,457 346,457 Z"/>
  </g>
  <g id="bullet-char-template-8211" transform="scale(0.00048828125,-0.00048828125)">
   <path d="M -4,459 L 1135,459 1135,606 -4,606 -4,459 Z"/>
  </g>
  <g id="bullet-char-template-61548" transform="scale(0.00048828125,-0.00048828125)">
   <path d="M 173,740 C 173,903 231,1043 346,1159 462,1274 601,1332 765,1332 928,1332 1067,1274 1183,1159 1299,1043 1357,903 1357,740 1357,577 1299,437 1183,322 1067,206 928,148 765,148 601,148 462,206 346,322 231,437 173,577 173,740 Z"/>
  </g>
 </defs>
 <g class="Page">
  <g class="com.sun.star.drawing.ClosedBezierShape">
   <g id="id3">
    <rect class="BoundingBox" stroke="none" fill="none" x="277" y="668" width="713" height="1119"/>
    <path fill="rgb(0,0,0)" stroke="none" d="M 852,1785 C 865,1758 878,1732 889,1705 L 455,1705 C 438,1705 421,1701 406,1692 391,1683 378,1672 370,1657 361,1642 357,1625 357,1608 L 357,1608 357,846 357,846 C 357,829 361,812 370,797 378,782 391,769 406,761 421,752 438,748 455,748 L 957,748 989,669 455,669 C 424,669 393,677 367,693 340,708 317,731 301,758 286,785 278,815 278,846 L 278,1608 278,1608 C 278,1639 285,1669 301,1696 316,1723 340,1745 367,1761 393,1776 424,1784 455,1785 L 852,1785 Z"/>
   </g>
  </g>
  <g class="com.sun.star.drawing.ClosedBezierShape">
   <g id="id4">
    <rect class="BoundingBox" stroke="none" fill="none" x="1178" y="668" width="1216" height="1118"/>
    <path fill="rgb(0,0,0)" stroke="none" d="M 2284,1008 L 2183,1008 2183,846 2183,846 C 2183,815 2175,785 2159,758 2144,731 2121,708 2094,693 2067,677 2037,669 2006,669 L 1738,669 1681,748 2006,748 C 2023,748 2040,753 2054,761 2069,770 2082,782 2090,797 2099,812 2104,829 2104,846 L 2104,846 2104,1608 2104,1608 C 2104,1625 2099,1642 2090,1657 2082,1672 2069,1683 2054,1692 2040,1701 2023,1705 2006,1705 L 1252,1705 1190,1772 1179,1784 2006,1784 C 2037,1784 2067,1776 2094,1760 2121,1745 2144,1723 2159,1696 2175,1669 2183,1639 2183,1608 L 2183,1608 2183,1446 2284,1446 C 2303,1446 2322,1441 2338,1432 2354,1422 2368,1408 2378,1392 2387,1375 2392,1357 2392,1338 L 2392,1117 C 2392,1098 2387,1079 2378,1062 2368,1046 2354,1032 2338,1023 2322,1013 2303,1008 2284,1008 Z M 2313,1338 C 2313,1343 2312,1347 2309,1352 2307,1356 2303,1360 2298,1363 2294,1365 2289,1367 2284,1367 L 2183,1367 2183,1087 2284,1087 C 2289,1087 2294,1088 2298,1091 2303,1093 2307,1098 2309,1102 2312,1106 2313,1111 2313,1117 L 2313,1338 Z"/>
   </g>
  </g>
  <g class="com.sun.star.drawing.ClosedBezierShape">
   <g id="id5">
    <rect class="BoundingBox" stroke="none" fill="none" x="767" y="594" width="928" height="1484"/>
    <path fill="rgb(0,0,0)" stroke="none" d="M 768,1421 L 1112,1421 C 1067,1517 847,1979 801,2076 801,2076 1540,1277 1683,1120 L 1314,1120 1693,597 1688,595 C 1533,595 1292,595 1104,595 1097,613 778,1398 768,1421 Z"/>
   </g>
  </g>
 </g>
</svg>