<?xml version="1.0" encoding="UTF-8"?>
<!DOCTYPE svg PUBLIC "-//W3C//DTD SVG 1.1//EN" "http://www.w3.org/Graphics/SVG/1.1/DTD/svg11.dtd">
<svg version="1.2" width="23.83mm" height="20.17mm" viewBox="144 327 2383 2017" preserveAspectRatio="xMidYMid" fill-rule="evenodd" stroke-width="28.222" stroke-linejoin="round" xmlns="http://www.w3.org/2000/svg" xmlns:ooo="http://xml.openoffice.org/svg/export" xmlns:xlink="http://www.w3.org/1999/xlink" xmlns:presentation="http://sun.com/xmlns/staroffice/presentation" xmlns:smil="http://www.w3.org/2001/SMIL20/" xmlns:anim="urn:oasis:names:tc:opendocument:xmlns:animation:1.0" xml:space="preserve">
 <defs class="EmbeddedBulletChars">
  <g id="bullet-char-template-57356" transform="scale(0.00048828125,-0.00048828125)">
   <path d="M 580,1141 L 1163,571 580,0 -4,571 580,1141 Z"/>
  </g>
  <g id="bullet-char-template-57354" transform="scale(0.00048828125,-0.00048828125)">
   <path d="M 8,1128 L 1137,1128 1137,0 8,0 8,1128 Z"/>
  </g>
  <g id="bullet-char-template-10146" transform="scale(0.00048828125,-0.00048828125)">
   <path d="M 174,0 L 602,739 174,1481 1456,739 174,0 Z M 1358,739 L 309,1346 659,739 1358,739 Z"/>
  </g>
  <g id="bullet-char-template-10132" transform="scale(0.00048828125,-0.00048828125)">
   <path d="M 2015,739 L 1276,0 717,0 1260,543 174,543 174,936 1260,936 717,1481 1274,1481 2015,739 Z"/>
  </g>
  <g id="bullet-char-template-10007" transform="scale(0.00048828125,-0.00048828125)">
   <path d="M 0,-2 C -7,14 -16,27 -25,37 L 356,567 C 262,823 215,952 215,954 215,979 228,992 255,992 264,992 276,990 289,987 310,991 331,999 354,1012 L 381,999 492,748 772,1049 836,1024 860,1049 C 881,1039 901,1025 922,1006 886,937 835,863 770,784 769,783 710,716 594,584 L 774,223 C 774,196 753,168 711,139 L 727,119 C 717,90 699,76 672,76 641,76 570,178 457,381 L 164,-76 C 142,-110 111,-127 72,-127 30,-127 9,-110 8,-76 1,-67 -2,-52 -2,-32 -2,-23 -1,-13 0,-2 Z"/>
  </g>
  <g id="bullet-char-template-10004" transform="scale(0.00048828125,-0.00048828125)">
   <path d="M 285,-33 C 182,-33 111,30 74,156 52,228 41,333 41,471 41,549 55,616 82,672 116,743 169,778 240,778 293,778 328,747 346,684 L 369,508 C 377,444 397,411 428,410 L 1163,1116 C 1174,1127 1196,1133 1229,1133 1271,1133 1292,1118 1292,1087 L 1292,965 C 1292,929 1282,901 1262,881 L 442,47 C 390,-6 338,-33 285,-33 Z"/>
  </g>
  <g id="bullet-char-template-9679" transform="scale(0.00048828125,-0.00048828125)">
   <path d="M 813,0 C 632,0 489,54 383,161 276,268 223,411 223,592 223,773 276,916 383,1023 489,1130 632,1184 813,1184 992,1184 1136,1130 1245,1023 1353,916 1407,772 1407,592 1407,412 1353,268 1245,161 1136,54 992,0 813,0 Z"/>
  </g>
  <g id="bullet-char-template-8226" transform="scale(0.00048828125,-0.00048828125)">
   <path d="M 346,457 C 273,457 209,483 155,535 101,586 74,649 74,723 74,796 101,859 155,911 209,963 273,989 346,989 419,989 480,963 531,910 582,859 608,796 608,723 608,648 583,586 532,535 482,483 420,457 346,457 Z"/>
  </g>
  <g id="bullet-char-template-8211" transform="scale(0.00048828125,-0.00048828125)">
   <path d="M -4,459 L 1135,459 1135,606 -4,606 -4,459 Z"/>
  </g>
  <g id="bullet-char-template-61548" transform="scale(0.00048828125,-0.00048828125)">
   <path d="M 173,740 C 173,903 231,1043 346,1159 462,1274 601,1332 765,1332 928,1332 1067,1274 1183,1159 1299,1043 1357,903 1357,740 1357,577 1299,437 1183,322 1067,206 928,148 765,148 601,148 462,206 346,322 231,437 173,577 173,740 Z"/>
  </g>
 </defs>
 <g class="Page">
  <g class="com.sun.star.drawing.ClosedBezierShape">
   <g id="id3">
    <rect class="BoundingBox" stroke="none" fill="none" x="1526" y="1344" width="1001" height="1000"/>
    <path fill="rgb(0,0,0)" stroke="none" d="M 2025,1345 C 2301,1345 2525,1568 2525,1843 2525,2119 2301,2342 2025,2342 1750,2342 1526,2119 1526,1843 1526,1568 1750,1345 2025,1345 Z M 2025,1470 C 2232,1470 2400,1637 2400,1843 2400,2050 2232,2218 2025,2218 1819,2218 1651,2050 1651,1843 1651,1637 1819,1470 2025,1470 Z"/>
   </g>
  </g>
  <g class="com.sun.star.drawing.ClosedBezierShape">
   <g id="id4">
    <rect class="BoundingBox" stroke="none" fill="none" x="144" y="1344" width="1001" height="1000"/>
    <path fill="rgb(0,0,0)" stroke="none" d="M 645,1345 C 369,1345 145,1568 145,1843 145,2119 369,2342 645,2342 920,2342 1144,2119 1144,1843 1144,1568 920,1345 645,1345 Z M 645,1470 C 851,1470 1019,1637 1019,1843 1019,2050 851,2218 645,2218 438,2218 270,2050 270,1843 270,1637 438,1470 645,1470 Z"/>
   </g>
  </g>
  <g class="com.sun.star.drawing.ClosedBezierShape">
   <g id="id5">
    <rect class="BoundingBox" stroke="none" fill="none" x="792" y="610" width="1344" height="1344"/>
    <path fill="rgb(0,0,0)" stroke="none" d="M 1444,1843 L 1444,1456 C 1444,1416 1423,1380 1388,1361 L 1081,1185 1367,898 1542,1207 C 1561,1241 1598,1262 1637,1262 L 2025,1262 C 2085,1262 2134,1213 2134,1153 2134,1093 2085,1044 2025,1044 L 1700,1044 1486,666 C 1469,636 1439,616 1405,612 1372,607 1338,618 1315,643 L 825,1132 C 801,1156 790,1190 794,1224 799,1258 819,1288 848,1304 L 1226,1519 1226,1843 C 1226,1903 1274,1952 1335,1952 1395,1952 1444,1903 1444,1843 Z"/>
   </g>
  </g>
  <g class="com.sun.star.drawing.ClosedBezierShape">
   <g id="id6">
    <rect class="BoundingBox" stroke="none" fill="none" x="1490" y="327" width="294" height="294"/>
    <path fill="rgb(0,0,0)" stroke="none" d="M 1782,474 C 1782,500 1775,524 1762,547 1750,569 1731,588 1709,601 1687,614 1662,620 1636,620 1610,620 1585,614 1563,601 1541,588 1523,569 1510,547 1498,524 1490,500 1490,474 1490,449 1497,424 1510,401 1522,379 1541,361 1563,348 1585,335 1610,328 1636,328 1662,328 1687,335 1709,348 1731,361 1750,379 1762,401 1775,424 1782,449 1782,474 Z"/>
   </g>
  </g>
 </g>
</svg>