<?xml version="1.0" encoding="UTF-8"?>
<!DOCTYPE svg PUBLIC "-//W3C//DTD SVG 1.1//EN" "http://www.w3.org/Graphics/SVG/1.1/DTD/svg11.dtd">
<svg version="1.2" width="25.15mm" height="21.89mm" viewBox="78 240 2515 2189" preserveAspectRatio="xMidYMid" fill-rule="evenodd" stroke-width="28.222" stroke-linejoin="round" xmlns="http://www.w3.org/2000/svg" xmlns:ooo="http://xml.openoffice.org/svg/export" xmlns:xlink="http://www.w3.org/1999/xlink" xmlns:presentation="http://sun.com/xmlns/staroffice/presentation" xmlns:smil="http://www.w3.org/2001/SMIL20/" xmlns:anim="urn:oasis:names:tc:opendocument:xmlns:animation:1.0" xml:space="preserve">
 <defs class="EmbeddedBulletChars">
  <g id="bullet-char-template-57356" transform="scale(0.00048828125,-0.00048828125)">
   <path d="M 580,1141 L 1163,571 580,0 -4,571 580,1141 Z"/>
  </g>
  <g id="bullet-char-template-57354" transform="scale(0.00048828125,-0.00048828125)">
   <path d="M 8,1128 L 1137,1128 1137,0 8,0 8,1128 Z"/>
  </g>
  <g id="bullet-char-template-10146" transform="scale(0.00048828125,-0.00048828125)">
   <path d="M 174,0 L 602,739 174,1481 1456,739 174,0 Z M 1358,739 L 309,1346 659,739 1358,739 Z"/>
  </g>
  <g id="bullet-char-template-10132" transform="scale(0.00048828125,-0.00048828125)">
   <path d="M 2015,739 L 1276,0 717,0 1260,543 174,543 174,936 1260,936 717,1481 1274,1481 2015,739 Z"/>
  </g>
  <g id="bullet-char-template-10007" transform="scale(0.00048828125,-0.00048828125)">
   <path d="M 0,-2 C -7,14 -16,27 -25,37 L 356,567 C 262,823 215,952 215,954 215,979 228,992 255,992 264,992 276,990 289,987 310,991 331,999 354,1012 L 381,999 492,748 772,1049 836,1024 860,1049 C 881,1039 901,1025 922,1006 886,937 835,863 770,784 769,783 710,716 594,584 L 774,223 C 774,196 753,168 711,139 L 727,119 C 717,90 699,76 672,76 641,76 570,178 457,381 L 164,-76 C 142,-110 111,-127 72,-127 30,-127 9,-110 8,-76 1,-67 -2,-52 -2,-32 -2,-23 -1,-13 0,-2 Z"/>
  </g>
  <g id="bullet-char-template-10004" transform="scale(0.00048828125,-0.00048828125)">
   <path d="M 285,-33 C 182,-33 111,30 74,156 52,228 41,333 41,471 41,549 55,616 82,672 116,743 169,778 240,778 293,778 328,747 346,684 L 369,508 C 377,444 397,411 428,410 L 1163,1116 C 1174,1127 1196,1133 1229,1133 1271,1133 1292,1118 1292,1087 L 1292,965 C 1292,929 1282,901 1262,881 L 442,47 C 390,-6 338,-33 285,-33 Z"/>
  </g>
  <g id="bullet-char-template-9679" transform="scale(0.00048828125,-0.00048828125)">
   <path d="M 813,0 C 632,0 489,54 383,161 276,268 223,411 223,592 223,773 276,916 383,1023 489,1130 632,1184 813,1184 992,1184 1136,1130 1245,1023 1353,916 1407,772 1407,592 1407,412 1353,268 1245,161 1136,54 992,0 813,0 Z"/>
  </g>
  <g id="bullet-char-template-8226" transform="scale(0.00048828125,-0.00048828125)">
   <path d="M 346,457 C 273,457 209,483 155,535 101,586 74,649 74,723 74,796 101,859 155,911 209,963 273,989 346,989 419,989 480,963 531,910 582,859 608,796 608,723 608,648 583,586 532,535 482,483 420,457 346,457 Z"/>
  </g>
  <g id="bullet-char-template-8211" transform="scale(0.00048828125,-0.00048828125)">
   <path d="M -4,459 L 1135,459 1135,606 -4,606 -4,459 Z"/>
  </g>
  <g id="bullet-char-template-61548" transform="scale(0.00048828125,-0.00048828125)">
   <path d="M 173,740 C 173,903 231,1043 346,1159 462,1274 601,1332 765,1332 928,1332 1067,1274 1183,1159 1299,1043 1357,903 1357,740 1357,577 1299,437 1183,322 1067,206 928,148 765,148 601,148 462,206 346,322 231,437 173,577 173,740 Z"/>
  </g>
 </defs>
 <g class="Page">
  <g class="com.sun.star.drawing.ClosedBezierShape">
   <g id="id3">
    <rect class="BoundingBox" stroke="none" fill="none" x="78" y="240" width="1863" height="2189"/>
    <path fill="rgb(0,0,0)" stroke="none" d="M 1924,1360 L 1718,1042 C 1707,1024 1702,1003 1699,981 1662,566 1317,241 891,241 442,241 79,606 79,1053 79,1320 209,1584 407,1753 431,1774 444,1803 444,1832 L 444,2295 C 444,2332 473,2364 510,2366 L 1206,2427 C 1248,2430 1285,2398 1285,2356 L 1285,2031 C 1285,2009 1304,1991 1325,1991 L 1570,1991 C 1644,1991 1707,1930 1707,1853 L 1707,1526 C 1707,1510 1718,1500 1734,1500 L 1853,1500 C 1922,1500 1964,1420 1924,1360 Z M 1435,1164 C 1372,1164 1320,1111 1320,1048 1320,984 1372,931 1435,931 1498,931 1551,984 1551,1048 1551,1111 1498,1164 1435,1164 Z"/>
   </g>
  </g>
  <g class="com.sun.star.drawing.ClosedBezierShape">
   <g id="id4">
    <rect class="BoundingBox" stroke="none" fill="none" x="1800" y="1785" width="721" height="255"/>
    <path fill="rgb(0,0,0)" stroke="none" d="M 2387,1785 L 1842,1785 C 1818,1785 1800,1803 1800,1827 1800,1851 1818,1869 1842,1869 L 2390,1869 C 2413,1869 2432,1888 2432,1912 2432,1935 2413,1954 2390,1954 2376,1954 2366,1949 2358,1938 2342,1919 2316,1917 2297,1933 2279,1949 2276,1975 2292,1994 2316,2023 2353,2038 2390,2038 2461,2038 2519,1980 2519,1909 2517,1843 2458,1785 2387,1785 Z"/>
   </g>
  </g>
  <g class="com.sun.star.drawing.ClosedBezierShape">
   <g id="id5">
    <rect class="BoundingBox" stroke="none" fill="none" x="1800" y="1396" width="793" height="309"/>
    <path fill="rgb(0,0,0)" stroke="none" d="M 2440,1397 C 2382,1397 2326,1431 2302,1487 2292,1508 2302,1534 2324,1545 2345,1555 2371,1545 2382,1524 2392,1500 2416,1487 2440,1487 2477,1487 2506,1516 2506,1553 2506,1590 2477,1619 2440,1619 L 1842,1619 C 1818,1619 1800,1637 1800,1661 1800,1684 1818,1703 1842,1703 L 2440,1703 C 2525,1703 2591,1635 2591,1553 2591,1471 2522,1397 2440,1397 Z"/>
   </g>
  </g>
 </g>
</svg>