<?xml version="1.0" encoding="UTF-8"?>
<!DOCTYPE svg PUBLIC "-//W3C//DTD SVG 1.1//EN" "http://www.w3.org/Graphics/SVG/1.1/DTD/svg11.dtd">
<svg version="1.2" width="12.67mm" height="12.69mm" viewBox="213 213 1267 1269" preserveAspectRatio="xMidYMid" fill-rule="evenodd" stroke-width="28.222" stroke-linejoin="round" xmlns="http://www.w3.org/2000/svg" xmlns:ooo="http://xml.openoffice.org/svg/export" xmlns:xlink="http://www.w3.org/1999/xlink" xmlns:presentation="http://sun.com/xmlns/staroffice/presentation" xmlns:smil="http://www.w3.org/2001/SMIL20/" xmlns:anim="urn:oasis:names:tc:opendocument:xmlns:animation:1.0" xml:space="preserve">
 <defs class="EmbeddedBulletChars">
  <g id="bullet-char-template-57356" transform="scale(0.00048828125,-0.00048828125)">
   <path d="M 580,1141 L 1163,571 580,0 -4,571 580,1141 Z"/>
  </g>
  <g id="bullet-char-template-57354" transform="scale(0.00048828125,-0.00048828125)">
   <path d="M 8,1128 L 1137,1128 1137,0 8,0 8,1128 Z"/>
  </g>
  <g id="bullet-char-template-10146" transform="scale(0.00048828125,-0.00048828125)">
   <path d="M 174,0 L 602,739 174,1481 1456,739 174,0 Z M 1358,739 L 309,1346 659,739 1358,739 Z"/>
  </g>
  <g id="bullet-char-template-10132" transform="scale(0.00048828125,-0.00048828125)">
   <path d="M 2015,739 L 1276,0 717,0 1260,543 174,543 174,936 1260,936 717,1481 1274,1481 2015,739 Z"/>
  </g>
  <g id="bullet-char-template-10007" transform="scale(0.00048828125,-0.00048828125)">
   <path d="M 0,-2 C -7,14 -16,27 -25,37 L 356,567 C 262,823 215,952 215,954 215,979 228,992 255,992 264,992 276,990 289,987 310,991 331,999 354,1012 L 381,999 492,748 772,1049 836,1024 860,1049 C 881,1039 901,1025 922,1006 886,937 835,863 770,784 769,783 710,716 594,584 L 774,223 C 774,196 753,168 711,139 L 727,119 C 717,90 699,76 672,76 641,76 570,178 457,381 L 164,-76 C 142,-110 111,-127 72,-127 30,-127 9,-110 8,-76 1,-67 -2,-52 -2,-32 -2,-23 -1,-13 0,-2 Z"/>
  </g>
  <g id="bullet-char-template-10004" transform="scale(0.00048828125,-0.00048828125)">
   <path d="M 285,-33 C 182,-33 111,30 74,156 52,228 41,333 41,471 41,549 55,616 82,672 116,743 169,778 240,778 293,778 328,747 346,684 L 369,508 C 377,444 397,411 428,410 L 1163,1116 C 1174,1127 1196,1133 1229,1133 1271,1133 1292,1118 1292,1087 L 1292,965 C 1292,929 1282,901 1262,881 L 442,47 C 390,-6 338,-33 285,-33 Z"/>
  </g>
  <g id="bullet-char-template-9679" transform="scale(0.00048828125,-0.00048828125)">
   <path d="M 813,0 C 632,0 489,54 383,161 276,268 223,411 223,592 223,773 276,916 383,1023 489,1130 632,1184 813,1184 992,1184 1136,1130 1245,1023 1353,916 1407,772 1407,592 1407,412 1353,268 1245,161 1136,54 992,0 813,0 Z"/>
  </g>
  <g id="bullet-char-template-8226" transform="scale(0.00048828125,-0.00048828125)">
   <path d="M 346,457 C 273,457 209,483 155,535 101,586 74,649 74,723 74,796 101,859 155,911 209,963 273,989 346,989 419,989 480,963 531,910 582,859 608,796 608,723 608,648 583,586 532,535 482,483 420,457 346,457 Z"/>
  </g>
  <g id="bullet-char-template-8211" transform="scale(0.00048828125,-0.00048828125)">
   <path d="M -4,459 L 1135,459 1135,606 -4,606 -4,459 Z"/>
  </g>
  <g id="bullet-char-template-61548" transform="scale(0.00048828125,-0.00048828125)">
   <path d="M 173,740 C 173,903 231,1043 346,1159 462,1274 601,1332 765,1332 928,1332 1067,1274 1183,1159 1299,1043 1357,903 1357,740 1357,577 1299,437 1183,322 1067,206 928,148 765,148 601,148 462,206 346,322 231,437 173,577 173,740 Z"/>
  </g>
 </defs>
 <g class="Page">
  <g class="com.sun.star.drawing.ClosedBezierShape">
   <g id="id3">
    <rect class="BoundingBox" stroke="none" fill="none" x="213" y="213" width="1267" height="1269"/>
    <path fill="rgb(0,0,0)" stroke="none" d="M 1261,465 C 1241,429 1212,399 1175,378 1139,357 1097,346 1056,346 1030,346 1004,350 979,359 952,317 916,281 871,256 824,229 769,214 714,214 658,214 604,228 556,256 508,283 467,324 440,372 412,420 398,475 398,530 398,531 398,531 398,531 398,535 398,539 398,542 380,548 362,556 346,566 305,589 272,622 249,662 226,702 214,748 214,794 214,840 226,886 249,926 272,966 305,999 346,1023 386,1046 431,1058 477,1058 L 508,1058 C 504,1083 501,1109 501,1135 501,1196 517,1256 547,1308 577,1361 620,1404 673,1434 725,1464 785,1480 846,1480 906,1480 966,1464 1018,1434 1071,1404 1114,1361 1144,1308 1174,1256 1190,1196 1190,1135 1190,1109 1187,1083 1183,1058 L 1214,1058 1214,1058 C 1260,1058 1306,1046 1346,1023 1386,1000 1419,966 1442,926 1465,886 1478,840 1478,794 1478,747 1465,702 1442,662 1419,622 1386,589 1346,566 1328,556 1309,547 1289,542 1285,514 1275,488 1261,465 Z M 846,1374 C 804,1374 763,1363 726,1342 690,1321 659,1292 639,1255 617,1219 607,1177 607,1135 607,948 778,759 846,700 913,759 1084,948 1084,1135 1084,1177 1073,1218 1052,1255 1031,1291 1001,1321 965,1342 928,1363 887,1374 846,1374 Z M 1214,952 L 1152,952 C 1074,753 900,582 846,582 791,582 617,753 539,952 L 477,952 477,952 C 449,952 422,945 398,931 374,917 354,897 340,873 326,849 319,822 319,794 319,766 326,739 340,715 354,691 374,671 398,657 417,646 439,639 462,637 469,636 476,634 483,630 491,625 497,619 502,611 507,603 509,594 509,584 509,581 509,577 508,573 505,559 504,545 504,531 L 504,531 C 504,531 504,531 504,530 504,494 513,457 532,425 550,393 577,366 609,348 641,329 677,320 714,320 751,320 786,329 819,348 851,366 877,393 896,425 900,433 904,441 907,449 908,451 909,453 910,455 915,463 922,469 930,474 938,479 947,481 956,481 965,481 974,479 982,474 983,474 984,473 985,473 986,472 988,470 990,469 1010,458 1033,452 1056,452 1079,452 1102,457 1122,469 1142,480 1159,498 1170,518 1182,538 1187,560 1187,583 1187,584 1187,585 1187,585 1187,594 1190,603 1194,611 1199,619 1206,626 1214,631 1220,634 1227,637 1234,637 1255,640 1275,647 1294,657 1318,671 1338,691 1352,715 1366,739 1373,766 1373,794 1373,821 1366,849 1352,873 1338,897 1318,917 1294,931 1270,945 1243,952 1215,952 L 1214,952 Z"/>
   </g>
  </g>
  <g class="com.sun.star.drawing.ClosedBezierShape">
   <g id="id4">
    <rect class="BoundingBox" stroke="none" fill="none" x="693" y="960" width="306" height="306"/>
    <path fill="rgb(0,0,0)" stroke="none" d="M 709,1248 C 713,1252 715,1255 720,1257 727,1262 738,1264 747,1264 756,1264 765,1262 773,1257 777,1255 781,1252 784,1248 L 982,1051 C 985,1048 988,1044 990,1040 995,1032 997,1022 997,1013 997,1003 995,995 990,987 985,979 979,972 971,968 963,963 953,961 944,961 935,961 926,963 918,968 914,970 910,973 907,976 L 709,1173 C 706,1177 703,1181 701,1184 696,1193 694,1202 694,1211 694,1220 696,1229 701,1237 703,1241 706,1245 709,1248 Z"/>
   </g>
  </g>
  <g class="com.sun.star.drawing.ClosedBezierShape">
   <g id="id5">
    <rect class="BoundingBox" stroke="none" fill="none" x="686" y="953" width="111" height="111"/>
    <path fill="rgb(0,0,0)" stroke="none" d="M 742,1062 C 751,1062 761,1059 769,1055 777,1050 784,1043 789,1035 793,1026 796,1017 796,1008 796,998 793,989 789,981 784,973 777,966 769,961 761,956 751,954 742,954 732,954 723,956 715,961 706,966 699,973 695,981 690,989 687,999 687,1008 687,1018 690,1027 695,1035 699,1044 706,1051 715,1055 723,1059 732,1062 742,1062 Z"/>
   </g>
  </g>
  <g class="com.sun.star.drawing.ClosedBezierShape">
   <g id="id6">
    <rect class="BoundingBox" stroke="none" fill="none" x="895" y="1162" width="109" height="109"/>
    <path fill="rgb(0,0,0)" stroke="none" d="M 1002,1215 C 1002,1225 1000,1234 995,1242 991,1250 983,1257 975,1261 967,1266 958,1269 948,1269 939,1269 930,1266 922,1261 914,1257 907,1250 902,1242 898,1234 895,1225 895,1215 895,1206 898,1197 902,1188 907,1180 914,1174 922,1169 930,1164 939,1162 948,1162 958,1162 967,1164 975,1169 983,1174 990,1180 995,1188 999,1197 1002,1206 1002,1215 Z"/>
   </g>
  </g>
 </g>
</svg>