<?xml version="1.0" encoding="UTF-8"?>
<!DOCTYPE svg PUBLIC "-//W3C//DTD SVG 1.1//EN" "http://www.w3.org/Graphics/SVG/1.1/DTD/svg11.dtd">
<svg version="1.2" width="17.47mm" height="19.85mm" viewBox="462 343 1747 1985" preserveAspectRatio="xMidYMid" fill-rule="evenodd" stroke-width="28.222" stroke-linejoin="round" xmlns="http://www.w3.org/2000/svg" xmlns:ooo="http://xml.openoffice.org/svg/export" xmlns:xlink="http://www.w3.org/1999/xlink" xmlns:presentation="http://sun.com/xmlns/staroffice/presentation" xmlns:smil="http://www.w3.org/2001/SMIL20/" xmlns:anim="urn:oasis:names:tc:opendocument:xmlns:animation:1.0" xml:space="preserve">
 <defs class="EmbeddedBulletChars">
  <g id="bullet-char-template-57356" transform="scale(0.00048828125,-0.00048828125)">
   <path d="M 580,1141 L 1163,571 580,0 -4,571 580,1141 Z"/>
  </g>
  <g id="bullet-char-template-57354" transform="scale(0.00048828125,-0.00048828125)">
   <path d="M 8,1128 L 1137,1128 1137,0 8,0 8,1128 Z"/>
  </g>
  <g id="bullet-char-template-10146" transform="scale(0.00048828125,-0.00048828125)">
   <path d="M 174,0 L 602,739 174,1481 1456,739 174,0 Z M 1358,739 L 309,1346 659,739 1358,739 Z"/>
  </g>
  <g id="bullet-char-template-10132" transform="scale(0.00048828125,-0.00048828125)">
   <path d="M 2015,739 L 1276,0 717,0 1260,543 174,543 174,936 1260,936 717,1481 1274,1481 2015,739 Z"/>
  </g>
  <g id="bullet-char-template-10007" transform="scale(0.00048828125,-0.00048828125)">
   <path d="M 0,-2 C -7,14 -16,27 -25,37 L 356,567 C 262,823 215,952 215,954 215,979 228,992 255,992 264,992 276,990 289,987 310,991 331,999 354,1012 L 381,999 492,748 772,1049 836,1024 860,1049 C 881,1039 901,1025 922,1006 886,937 835,863 770,784 769,783 710,716 594,584 L 774,223 C 774,196 753,168 711,139 L 727,119 C 717,90 699,76 672,76 641,76 570,178 457,381 L 164,-76 C 142,-110 111,-127 72,-127 30,-127 9,-110 8,-76 1,-67 -2,-52 -2,-32 -2,-23 -1,-13 0,-2 Z"/>
  </g>
  <g id="bullet-char-template-10004" transform="scale(0.00048828125,-0.00048828125)">
   <path d="M 285,-33 C 182,-33 111,30 74,156 52,228 41,333 41,471 41,549 55,616 82,672 116,743 169,778 240,778 293,778 328,747 346,684 L 369,508 C 377,444 397,411 428,410 L 1163,1116 C 1174,1127 1196,1133 1229,1133 1271,1133 1292,1118 1292,1087 L 1292,965 C 1292,929 1282,901 1262,881 L 442,47 C 390,-6 338,-33 285,-33 Z"/>
  </g>
  <g id="bullet-char-template-9679" transform="scale(0.00048828125,-0.00048828125)">
   <path d="M 813,0 C 632,0 489,54 383,161 276,268 223,411 223,592 223,773 276,916 383,1023 489,1130 632,1184 813,1184 992,1184 1136,1130 1245,1023 1353,916 1407,772 1407,592 1407,412 1353,268 1245,161 1136,54 992,0 813,0 Z"/>
  </g>
  <g id="bullet-char-template-8226" transform="scale(0.00048828125,-0.00048828125)">
   <path d="M 346,457 C 273,457 209,483 155,535 101,586 74,649 74,723 74,796 101,859 155,911 209,963 273,989 346,989 419,989 480,963 531,910 582,859 608,796 608,723 608,648 583,586 532,535 482,483 420,457 346,457 Z"/>
  </g>
  <g id="bullet-char-template-8211" transform="scale(0.00048828125,-0.00048828125)">
   <path d="M -4,459 L 1135,459 1135,606 -4,606 -4,459 Z"/>
  </g>
  <g id="bullet-char-template-61548" transform="scale(0.00048828125,-0.00048828125)">
   <path d="M 173,740 C 173,903 231,1043 346,1159 462,1274 601,1332 765,1332 928,1332 1067,1274 1183,1159 1299,1043 1357,903 1357,740 1357,577 1299,437 1183,322 1067,206 928,148 765,148 601,148 462,206 346,322 231,437 173,577 173,740 Z"/>
  </g>
 </defs>
 <g class="Page">
  <g class="com.sun.star.drawing.ClosedBezierShape">
   <g id="id3">
    <rect class="BoundingBox" stroke="none" fill="none" x="833" y="760" width="958" height="1568"/>
    <path fill="rgb(0,0,0)" stroke="none" d="M 1134,1464 C 1117,1494 1112,1529 1121,1563 1130,1596 1152,1625 1182,1642 L 1497,1824 C 1497,1824 1388,2014 1316,2139 1282,2199 1302,2275 1361,2310 L 1361,2310 C 1390,2326 1423,2331 1455,2322 1487,2313 1514,2293 1531,2264 1598,2148 1704,1963 1772,1845 1808,1783 1787,1703 1725,1667 1598,1595 1408,1486 1408,1486 L 1720,946 C 1742,908 1742,861 1720,823 1697,785 1657,761 1613,761 L 958,761 C 889,761 834,817 834,886 L 834,886 C 834,919 847,950 870,974 893,997 925,1010 958,1010 L 1395,1010 C 1395,1010 1230,1299 1134,1464 Z"/>
   </g>
  </g>
  <g class="com.sun.star.drawing.ClosedBezierShape">
   <g id="id4">
    <rect class="BoundingBox" stroke="none" fill="none" x="462" y="1543" width="809" height="464"/>
    <path fill="rgb(0,0,0)" stroke="none" d="M 1088,1544 L 965,1756 588,1756 C 555,1756 523,1769 500,1793 477,1816 463,1848 463,1881 L 463,1881 C 463,1950 519,2005 588,2005 L 1065,2005 C 1092,2005 1117,1991 1131,1967 L 1270,1726 1167,1667 C 1131,1646 1104,1611 1093,1570 1091,1562 1089,1553 1088,1544 Z"/>
   </g>
  </g>
  <g class="com.sun.star.drawing.ClosedBezierShape">
   <g id="id5">
    <rect class="BoundingBox" stroke="none" fill="none" x="1633" y="896" width="576" height="365"/>
    <path fill="rgb(0,0,0)" stroke="none" d="M 1765,897 C 1763,919 1756,941 1745,961 L 1633,1156 1679,1230 C 1691,1249 1712,1260 1734,1260 1806,1260 1968,1260 2082,1260 2151,1260 2207,1205 2207,1136 L 2207,1136 C 2207,1103 2193,1071 2170,1048 2147,1024 2115,1011 2082,1011 L 1836,1011 1765,897 Z"/>
   </g>
  </g>
  <g class="com.sun.star.drawing.ClosedBezierShape">
   <g id="id6">
    <rect class="BoundingBox" stroke="none" fill="none" x="1579" y="343" width="438" height="438"/>
    <path fill="rgb(0,0,0)" stroke="none" d="M 2015,562 C 2015,601 2005,638 1986,671 1967,704 1939,732 1906,751 1873,770 1835,780 1797,780 1759,780 1721,770 1688,751 1655,732 1628,704 1608,671 1589,638 1579,601 1579,562 1579,524 1589,487 1608,453 1628,420 1655,393 1688,374 1721,355 1759,344 1797,344 1835,344 1873,355 1906,374 1939,393 1967,420 1986,453 2005,487 2015,524 2015,562 Z"/>
   </g>
  </g>
 </g>
</svg>