<?xml version="1.0" encoding="UTF-8"?>
<!DOCTYPE svg PUBLIC "-//W3C//DTD SVG 1.1//EN" "http://www.w3.org/Graphics/SVG/1.1/DTD/svg11.dtd">
<svg version="1.2" width="54.1mm" height="66.98mm" viewBox="843 866 5410 6698" preserveAspectRatio="xMidYMid" fill-rule="evenodd" stroke-width="28.222" stroke-linejoin="round" xmlns="http://www.w3.org/2000/svg" xmlns:ooo="http://xml.openoffice.org/svg/export" xmlns:xlink="http://www.w3.org/1999/xlink" xmlns:presentation="http://sun.com/xmlns/staroffice/presentation" xmlns:smil="http://www.w3.org/2001/SMIL20/" xmlns:anim="urn:oasis:names:tc:opendocument:xmlns:animation:1.0" xml:space="preserve">
 <defs class="EmbeddedBulletChars">
  <g id="bullet-char-template-57356" transform="scale(0.00048828125,-0.00048828125)">
   <path d="M 580,1141 L 1163,571 580,0 -4,571 580,1141 Z"/>
  </g>
  <g id="bullet-char-template-57354" transform="scale(0.00048828125,-0.00048828125)">
   <path d="M 8,1128 L 1137,1128 1137,0 8,0 8,1128 Z"/>
  </g>
  <g id="bullet-char-template-10146" transform="scale(0.00048828125,-0.00048828125)">
   <path d="M 174,0 L 602,739 174,1481 1456,739 174,0 Z M 1358,739 L 309,1346 659,739 1358,739 Z"/>
  </g>
  <g id="bullet-char-template-10132" transform="scale(0.00048828125,-0.00048828125)">
   <path d="M 2015,739 L 1276,0 717,0 1260,543 174,543 174,936 1260,936 717,1481 1274,1481 2015,739 Z"/>
  </g>
  <g id="bullet-char-template-10007" transform="scale(0.00048828125,-0.00048828125)">
   <path d="M 0,-2 C -7,14 -16,27 -25,37 L 356,567 C 262,823 215,952 215,954 215,979 228,992 255,992 264,992 276,990 289,987 310,991 331,999 354,1012 L 381,999 492,748 772,1049 836,1024 860,1049 C 881,1039 901,1025 922,1006 886,937 835,863 770,784 769,783 710,716 594,584 L 774,223 C 774,196 753,168 711,139 L 727,119 C 717,90 699,76 672,76 641,76 570,178 457,381 L 164,-76 C 142,-110 111,-127 72,-127 30,-127 9,-110 8,-76 1,-67 -2,-52 -2,-32 -2,-23 -1,-13 0,-2 Z"/>
  </g>
  <g id="bullet-char-template-10004" transform="scale(0.00048828125,-0.00048828125)">
   <path d="M 285,-33 C 182,-33 111,30 74,156 52,228 41,333 41,471 41,549 55,616 82,672 116,743 169,778 240,778 293,778 328,747 346,684 L 369,508 C 377,444 397,411 428,410 L 1163,1116 C 1174,1127 1196,1133 1229,1133 1271,1133 1292,1118 1292,1087 L 1292,965 C 1292,929 1282,901 1262,881 L 442,47 C 390,-6 338,-33 285,-33 Z"/>
  </g>
  <g id="bullet-char-template-9679" transform="scale(0.00048828125,-0.00048828125)">
   <path d="M 813,0 C 632,0 489,54 383,161 276,268 223,411 223,592 223,773 276,916 383,1023 489,1130 632,1184 813,1184 992,1184 1136,1130 1245,1023 1353,916 1407,772 1407,592 1407,412 1353,268 1245,161 1136,54 992,0 813,0 Z"/>
  </g>
  <g id="bullet-char-template-8226" transform="scale(0.00048828125,-0.00048828125)">
   <path d="M 346,457 C 273,457 209,483 155,535 101,586 74,649 74,723 74,796 101,859 155,911 209,963 273,989 346,989 419,989 480,963 531,910 582,859 608,796 608,723 608,648 583,586 532,535 482,483 420,457 346,457 Z"/>
  </g>
  <g id="bullet-char-template-8211" transform="scale(0.00048828125,-0.00048828125)">
   <path d="M -4,459 L 1135,459 1135,606 -4,606 -4,459 Z"/>
  </g>
  <g id="bullet-char-template-61548" transform="scale(0.00048828125,-0.00048828125)">
   <path d="M 173,740 C 173,903 231,1043 346,1159 462,1274 601,1332 765,1332 928,1332 1067,1274 1183,1159 1299,1043 1357,903 1357,740 1357,577 1299,437 1183,322 1067,206 928,148 765,148 601,148 462,206 346,322 231,437 173,577 173,740 Z"/>
  </g>
 </defs>
 <g class="Page">
  <g class="com.sun.star.drawing.ClosedBezierShape">
   <g id="id3">
    <rect class="BoundingBox" stroke="none" fill="none" x="1521" y="1965" width="3434" height="3694"/>
    <path fill="rgb(0,0,0)" stroke="none" d="M 1632,3798 C 1674,3827 1724,3840 1772,3840 1851,3840 1931,3801 1981,3729 L 2468,3015 2780,2896 2637,3748 2637,3748 C 2634,3769 2621,3830 2621,3859 L 2621,4576 1973,5231 C 1875,5329 1878,5490 1976,5585 2026,5633 2089,5657 2153,5657 2219,5657 2283,5633 2333,5583 L 3052,4853 C 3055,4851 3055,4851 3058,4848 3060,4846 3066,4840 3068,4835 3071,4832 3074,4830 3076,4824 3079,4822 3081,4816 3084,4814 3086,4811 3090,4806 3090,4803 3092,4801 3095,4795 3095,4793 3097,4790 3097,4785 3100,4782 3103,4779 3103,4774 3105,4771 3108,4769 3108,4764 3111,4761 3113,4758 3113,4753 3116,4750 3116,4748 3119,4742 3119,4740 3119,4734 3121,4732 3121,4727 3121,4721 3124,4719 3124,4713 3124,4711 3124,4705 3127,4703 3127,4697 3127,4692 3127,4687 3127,4684 3127,4682 3127,4679 L 3127,4065 3903,4216 3903,5078 C 3903,5215 4018,5329 4155,5329 4293,5329 4406,5215 4406,5078 L 4406,4010 C 4406,3888 4321,3785 4202,3764 L 3283,3586 3418,2782 4049,2838 C 4102,2843 4152,2830 4197,2803 L 4829,2433 C 4948,2361 4988,2208 4919,2089 4848,1970 4694,1930 4575,1999 L 4012,2327 3140,2253 C 3137,2253 3137,2253 3134,2253 3129,2253 3124,2253 3119,2253 3116,2253 3111,2253 3108,2253 3103,2253 3100,2253 3095,2253 3090,2253 3087,2253 3082,2256 3079,2256 3074,2256 3071,2258 3066,2258 3060,2261 3055,2261 3052,2261 3050,2264 3047,2264 3042,2266 3037,2266 3031,2269 3029,2269 3029,2269 3026,2271 L 2216,2573 2214,2573 C 2209,2576 2206,2576 2201,2578 2198,2581 2195,2581 2193,2584 2187,2586 2185,2589 2179,2592 2177,2594 2174,2594 2171,2597 2169,2599 2164,2602 2161,2605 2158,2607 2153,2610 2150,2613 2148,2615 2144,2618 2142,2621 2139,2623 2134,2626 2132,2631 2129,2634 2127,2637 2127,2637 2124,2639 2119,2644 2116,2647 2113,2650 2113,2652 2111,2655 2108,2660 2103,2663 2100,2668 2100,2668 2100,2668 2100,2671 L 1568,3451 C 1486,3562 1515,3719 1632,3798 Z"/>
   </g>
  </g>
  <g class="com.sun.star.drawing.ClosedBezierShape">
   <g id="id4">
    <rect class="BoundingBox" stroke="none" fill="none" x="2676" y="866" width="1182" height="1182"/>
    <path fill="rgb(0,0,0)" stroke="none" d="M 3267,2047 C 3592,2047 3856,1782 3856,1457 3856,1131 3592,867 3267,867 2941,867 2677,1131 2677,1457 2677,1782 2941,2047 3267,2047 Z"/>
   </g>
  </g>
  <g class="com.sun.star.drawing.ClosedBezierShape">
   <g id="id5">
    <rect class="BoundingBox" stroke="none" fill="none" x="843" y="4620" width="5410" height="2944"/>
    <path fill="rgb(0,0,0)" stroke="none" d="M 6012,4621 L 4777,4621 C 4645,4621 4539,4727 4539,4859 L 4539,5440 3548,5440 C 3415,5440 3310,5546 3310,5678 L 3310,6263 2315,6263 C 2183,6263 2077,6369 2077,6501 L 2077,7086 1082,7086 C 950,7086 844,7192 844,7324 844,7456 950,7562 1082,7562 L 2315,7562 C 2447,7562 2553,7456 2553,7324 L 2553,6739 3548,6739 C 3679,6739 3785,6633 3785,6501 L 3785,5917 4777,5917 C 4909,5917 5015,5811 5015,5678 L 5015,5096 6012,5096 C 6145,5096 6251,4991 6251,4859 6251,4726 6145,4621 6012,4621 Z"/>
   </g>
  </g>
 </g>
</svg>