<?xml version="1.0" encoding="UTF-8"?>
<!DOCTYPE svg PUBLIC "-//W3C//DTD SVG 1.1//EN" "http://www.w3.org/Graphics/SVG/1.1/DTD/svg11.dtd">
<svg version="1.2" width="4.51mm" height="7.69mm" viewBox="290 25 451 769" preserveAspectRatio="xMidYMid" fill-rule="evenodd" stroke-width="28.222" stroke-linejoin="round" xmlns="http://www.w3.org/2000/svg" xmlns:ooo="http://xml.openoffice.org/svg/export" xmlns:xlink="http://www.w3.org/1999/xlink" xmlns:presentation="http://sun.com/xmlns/staroffice/presentation" xmlns:smil="http://www.w3.org/2001/SMIL20/" xmlns:anim="urn:oasis:names:tc:opendocument:xmlns:animation:1.0" xml:space="preserve">
 <defs class="EmbeddedBulletChars">
  <g id="bullet-char-template-57356" transform="scale(0.00048828125,-0.00048828125)">
   <path d="M 580,1141 L 1163,571 580,0 -4,571 580,1141 Z"/>
  </g>
  <g id="bullet-char-template-57354" transform="scale(0.00048828125,-0.00048828125)">
   <path d="M 8,1128 L 1137,1128 1137,0 8,0 8,1128 Z"/>
  </g>
  <g id="bullet-char-template-10146" transform="scale(0.00048828125,-0.00048828125)">
   <path d="M 174,0 L 602,739 174,1481 1456,739 174,0 Z M 1358,739 L 309,1346 659,739 1358,739 Z"/>
  </g>
  <g id="bullet-char-template-10132" transform="scale(0.00048828125,-0.00048828125)">
   <path d="M 2015,739 L 1276,0 717,0 1260,543 174,543 174,936 1260,936 717,1481 1274,1481 2015,739 Z"/>
  </g>
  <g id="bullet-char-template-10007" transform="scale(0.00048828125,-0.00048828125)">
   <path d="M 0,-2 C -7,14 -16,27 -25,37 L 356,567 C 262,823 215,952 215,954 215,979 228,992 255,992 264,992 276,990 289,987 310,991 331,999 354,1012 L 381,999 492,748 772,1049 836,1024 860,1049 C 881,1039 901,1025 922,1006 886,937 835,863 770,784 769,783 710,716 594,584 L 774,223 C 774,196 753,168 711,139 L 727,119 C 717,90 699,76 672,76 641,76 570,178 457,381 L 164,-76 C 142,-110 111,-127 72,-127 30,-127 9,-110 8,-76 1,-67 -2,-52 -2,-32 -2,-23 -1,-13 0,-2 Z"/>
  </g>
  <g id="bullet-char-template-10004" transform="scale(0.00048828125,-0.00048828125)">
   <path d="M 285,-33 C 182,-33 111,30 74,156 52,228 41,333 41,471 41,549 55,616 82,672 116,743 169,778 240,778 293,778 328,747 346,684 L 369,508 C 377,444 397,411 428,410 L 1163,1116 C 1174,1127 1196,1133 1229,1133 1271,1133 1292,1118 1292,1087 L 1292,965 C 1292,929 1282,901 1262,881 L 442,47 C 390,-6 338,-33 285,-33 Z"/>
  </g>
  <g id="bullet-char-template-9679" transform="scale(0.00048828125,-0.00048828125)">
   <path d="M 813,0 C 632,0 489,54 383,161 276,268 223,411 223,592 223,773 276,916 383,1023 489,1130 632,1184 813,1184 992,1184 1136,1130 1245,1023 1353,916 1407,772 1407,592 1407,412 1353,268 1245,161 1136,54 992,0 813,0 Z"/>
  </g>
  <g id="bullet-char-template-8226" transform="scale(0.00048828125,-0.00048828125)">
   <path d="M 346,457 C 273,457 209,483 155,535 101,586 74,649 74,723 74,796 101,859 155,911 209,963 273,989 346,989 419,989 480,963 531,910 582,859 608,796 608,723 608,648 583,586 532,535 482,483 420,457 346,457 Z"/>
  </g>
  <g id="bullet-char-template-8211" transform="scale(0.00048828125,-0.00048828125)">
   <path d="M -4,459 L 1135,459 1135,606 -4,606 -4,459 Z"/>
  </g>
  <g id="bullet-char-template-61548" transform="scale(0.00048828125,-0.00048828125)">
   <path d="M 173,740 C 173,903 231,1043 346,1159 462,1274 601,1332 765,1332 928,1332 1067,1274 1183,1159 1299,1043 1357,903 1357,740 1357,577 1299,437 1183,322 1067,206 928,148 765,148 601,148 462,206 346,322 231,437 173,577 173,740 Z"/>
  </g>
 </defs>
 <g class="Page">
  <g class="com.sun.star.drawing.ClosedBezierShape">
   <g id="id3">
    <rect class="BoundingBox" stroke="none" fill="none" x="343" y="25" width="160" height="742"/>
    <path fill="rgb(0,0,0)" stroke="none" d="M 423,26 C 409,26 395,30 383,37 371,44 361,54 354,66 347,78 344,92 344,106 L 344,686 C 344,700 347,714 354,726 361,738 371,748 383,755 395,762 409,765 423,765 436,765 450,762 462,755 474,748 484,738 491,726 498,714 501,700 501,686 L 501,106 C 501,92 498,78 491,66 484,54 474,44 462,37 450,30 436,26 423,26 Z M 448,686 C 448,691 447,695 445,699 443,703 439,707 435,709 431,711 427,712 423,712 418,712 414,711 410,709 406,707 402,703 400,699 398,695 397,691 397,686 L 397,106 C 397,101 398,96 400,92 402,87 406,85 410,83 414,80 418,79 423,79 427,79 431,80 435,83 439,85 443,87 445,92 447,96 448,101 448,106 L 448,686 Z"/>
   </g>
  </g>
  <g class="com.sun.star.drawing.ClosedBezierShape">
   <g id="id4">
    <rect class="BoundingBox" stroke="none" fill="none" x="581" y="105" width="160" height="160"/>
    <path fill="rgb(0,0,0)" stroke="none" d="M 660,264 C 646,264 632,261 620,254 608,247 598,237 591,225 584,213 581,199 581,185 581,171 584,157 591,145 598,133 608,123 620,116 632,109 646,106 660,106 674,106 688,109 700,116 712,123 722,133 729,145 736,157 739,171 739,185 739,199 736,213 729,225 722,237 712,247 700,254 688,261 674,264 660,264 Z M 660,159 C 655,159 651,160 647,162 643,164 639,168 637,172 635,176 634,180 634,185 634,190 635,194 637,198 639,202 643,206 647,208 651,210 655,211 660,211 665,211 669,210 673,208 677,206 681,202 683,198 685,194 686,190 686,185 686,180 685,176 683,172 681,168 677,164 673,162 669,160 665,159 660,159 Z"/>
   </g>
  </g>
  <g class="com.sun.star.drawing.ClosedBezierShape">
   <g id="id5">
    <rect class="BoundingBox" stroke="none" fill="none" x="290" y="528" width="266" height="266"/>
    <path fill="rgb(0,0,0)" stroke="none" d="M 554,660 C 554,683 548,706 536,726 525,746 508,762 488,774 468,786 445,792 423,792 400,792 377,786 357,774 337,762 320,746 309,726 297,706 291,683 291,660 291,636 297,614 309,594 320,573 337,557 357,545 377,534 400,529 423,529 445,528 468,534 488,545 508,557 525,573 536,594 548,614 554,636 554,660 Z"/>
   </g>
  </g>
 </g>
</svg>