<?xml version="1.0" encoding="UTF-8"?>
<!DOCTYPE svg PUBLIC "-//W3C//DTD SVG 1.1//EN" "http://www.w3.org/Graphics/SVG/1.1/DTD/svg11.dtd">
<svg version="1.2" width="18.56mm" height="18.39mm" viewBox="407 417 1856 1839" preserveAspectRatio="xMidYMid" fill-rule="evenodd" stroke-width="28.222" stroke-linejoin="round" xmlns="http://www.w3.org/2000/svg" xmlns:ooo="http://xml.openoffice.org/svg/export" xmlns:xlink="http://www.w3.org/1999/xlink" xmlns:presentation="http://sun.com/xmlns/staroffice/presentation" xmlns:smil="http://www.w3.org/2001/SMIL20/" xmlns:anim="urn:oasis:names:tc:opendocument:xmlns:animation:1.0" xml:space="preserve">
 <defs class="EmbeddedBulletChars">
  <g id="bullet-char-template-57356" transform="scale(0.00048828125,-0.00048828125)">
   <path d="M 580,1141 L 1163,571 580,0 -4,571 580,1141 Z"/>
  </g>
  <g id="bullet-char-template-57354" transform="scale(0.00048828125,-0.00048828125)">
   <path d="M 8,1128 L 1137,1128 1137,0 8,0 8,1128 Z"/>
  </g>
  <g id="bullet-char-template-10146" transform="scale(0.00048828125,-0.00048828125)">
   <path d="M 174,0 L 602,739 174,1481 1456,739 174,0 Z M 1358,739 L 309,1346 659,739 1358,739 Z"/>
  </g>
  <g id="bullet-char-template-10132" transform="scale(0.00048828125,-0.00048828125)">
   <path d="M 2015,739 L 1276,0 717,0 1260,543 174,543 174,936 1260,936 717,1481 1274,1481 2015,739 Z"/>
  </g>
  <g id="bullet-char-template-10007" transform="scale(0.00048828125,-0.00048828125)">
   <path d="M 0,-2 C -7,14 -16,27 -25,37 L 356,567 C 262,823 215,952 215,954 215,979 228,992 255,992 264,992 276,990 289,987 310,991 331,999 354,1012 L 381,999 492,748 772,1049 836,1024 860,1049 C 881,1039 901,1025 922,1006 886,937 835,863 770,784 769,783 710,716 594,584 L 774,223 C 774,196 753,168 711,139 L 727,119 C 717,90 699,76 672,76 641,76 570,178 457,381 L 164,-76 C 142,-110 111,-127 72,-127 30,-127 9,-110 8,-76 1,-67 -2,-52 -2,-32 -2,-23 -1,-13 0,-2 Z"/>
  </g>
  <g id="bullet-char-template-10004" transform="scale(0.00048828125,-0.00048828125)">
   <path d="M 285,-33 C 182,-33 111,30 74,156 52,228 41,333 41,471 41,549 55,616 82,672 116,743 169,778 240,778 293,778 328,747 346,684 L 369,508 C 377,444 397,411 428,410 L 1163,1116 C 1174,1127 1196,1133 1229,1133 1271,1133 1292,1118 1292,1087 L 1292,965 C 1292,929 1282,901 1262,881 L 442,47 C 390,-6 338,-33 285,-33 Z"/>
  </g>
  <g id="bullet-char-template-9679" transform="scale(0.00048828125,-0.00048828125)">
   <path d="M 813,0 C 632,0 489,54 383,161 276,268 223,411 223,592 223,773 276,916 383,1023 489,1130 632,1184 813,1184 992,1184 1136,1130 1245,1023 1353,916 1407,772 1407,592 1407,412 1353,268 1245,161 1136,54 992,0 813,0 Z"/>
  </g>
  <g id="bullet-char-template-8226" transform="scale(0.00048828125,-0.00048828125)">
   <path d="M 346,457 C 273,457 209,483 155,535 101,586 74,649 74,723 74,796 101,859 155,911 209,963 273,989 346,989 419,989 480,963 531,910 582,859 608,796 608,723 608,648 583,586 532,535 482,483 420,457 346,457 Z"/>
  </g>
  <g id="bullet-char-template-8211" transform="scale(0.00048828125,-0.00048828125)">
   <path d="M -4,459 L 1135,459 1135,606 -4,606 -4,459 Z"/>
  </g>
  <g id="bullet-char-template-61548" transform="scale(0.00048828125,-0.00048828125)">
   <path d="M 173,740 C 173,903 231,1043 346,1159 462,1274 601,1332 765,1332 928,1332 1067,1274 1183,1159 1299,1043 1357,903 1357,740 1357,577 1299,437 1183,322 1067,206 928,148 765,148 601,148 462,206 346,322 231,437 173,577 173,740 Z"/>
  </g>
 </defs>
 <g class="Page">
  <g class="com.sun.star.drawing.ClosedBezierShape">
   <g id="id3">
    <rect class="BoundingBox" stroke="none" fill="none" x="999" y="769" width="895" height="895"/>
    <path fill="rgb(0,0,0)" stroke="none" d="M 1040,1663 C 1047,1663 1054,1661 1060,1658 1063,1656 1065,1654 1068,1651 L 1880,838 C 1882,835 1884,832 1886,829 1890,823 1892,817 1892,810 1892,803 1890,796 1886,790 1884,787 1882,784 1880,782 1877,779 1875,777 1872,776 1866,772 1859,770 1852,770 1845,770 1838,772 1832,776 1829,777 1826,779 1824,782 L 1012,1595 C 1009,1597 1007,1600 1005,1603 1002,1609 1000,1616 1000,1623 1000,1630 1002,1637 1005,1643 1007,1646 1009,1649 1012,1651 1014,1654 1017,1656 1020,1658 1026,1661 1033,1663 1040,1663 Z"/>
   </g>
  </g>
  <g class="com.sun.star.drawing.ClosedBezierShape">
   <g id="id4">
    <rect class="BoundingBox" stroke="none" fill="none" x="407" y="417" width="1856" height="1839"/>
    <path fill="rgb(0,0,0)" stroke="none" d="M 588,2254 C 619,2253 649,2245 676,2230 690,2222 703,2212 714,2201 L 868,2049 1062,2041 C 1107,2040 1151,2028 1189,2005 1211,1993 1230,1977 1247,1960 L 2154,1053 C 2177,1030 2196,1005 2212,977 2244,922 2261,858 2261,794 2261,729 2244,667 2212,612 2196,584 2177,559 2154,536 2129,511 2101,490 2070,472 2009,436 1940,418 1868,418 1797,418 1726,436 1665,472 1634,490 1606,511 1581,536 L 703,1415 C 686,1433 671,1452 658,1474 636,1512 623,1556 621,1600 L 614,1794 461,1947 C 450,1959 440,1971 432,1985 417,2012 408,2043 408,2074 408,2106 416,2137 432,2164 447,2191 471,2214 498,2230 525,2245 556,2253 587,2254 L 588,2254 Z M 517,2004 L 681,1840 C 684,1837 686,1834 688,1831 691,1826 693,1820 693,1813 L 701,1602 C 703,1570 712,1539 728,1512 736,1496 747,1483 760,1470 L 851,1379 944,1472 C 946,1474 949,1476 952,1478 958,1481 965,1483 972,1483 979,1483 984,1481 991,1478 997,1474 1002,1469 1006,1463 1009,1457 1011,1450 1011,1443 1011,1436 1010,1430 1006,1424 1004,1420 1002,1418 1000,1415 L 907,1323 1066,1165 1158,1258 C 1161,1260 1164,1262 1166,1264 1173,1268 1179,1269 1186,1269 1193,1269 1200,1268 1206,1264 1212,1261 1217,1256 1221,1250 1224,1244 1226,1237 1226,1230 1226,1223 1224,1216 1221,1210 1219,1207 1217,1204 1214,1202 L 1122,1109 1280,952 1370,1045 C 1372,1047 1375,1049 1378,1051 1384,1055 1391,1057 1398,1057 L 1398,1057 C 1405,1056 1412,1055 1418,1051 1421,1049 1423,1047 1426,1045 1428,1042 1430,1040 1432,1037 1435,1031 1437,1024 1437,1017 1437,1010 1435,1003 1432,997 1430,994 1428,991 1426,989 L 1334,896 1492,737 1584,830 C 1587,833 1589,835 1592,837 1598,840 1605,842 1612,842 1619,842 1626,840 1632,837 1638,833 1644,828 1647,822 1651,816 1652,809 1652,802 1652,795 1650,788 1647,782 1645,779 1643,776 1640,774 L 1546,682 1636,592 C 1656,572 1679,555 1703,541 1753,512 1810,497 1867,497 1925,497 1981,512 2030,541 2055,555 2077,572 2097,592 2115,610 2131,629 2143,651 2169,694 2181,743 2181,794 2181,844 2169,894 2143,938 2131,959 2115,979 2097,997 L 1193,1903 C 1180,1915 1166,1926 1151,1934 1124,1950 1092,1959 1060,1961 L 849,1969 C 842,1969 836,1971 831,1974 828,1976 825,1978 822,1981 L 658,2145 C 652,2151 645,2156 637,2161 622,2169 605,2174 588,2174 570,2174 553,2170 538,2161 523,2152 509,2139 501,2124 492,2109 488,2092 488,2074 488,2057 493,2039 501,2024 506,2017 511,2010 517,2004 Z"/>
   </g>
  </g>
 </g>
</svg>